<svg width="135" height="135" viewBox="0 0 135 135" fill="none" xmlns="http://www.w3.org/2000/svg">
<g filter="url(#filter0_di_107_3)">
<circle cx="67.5" cy="63.5" r="62.5" fill="white"/>
<circle cx="67.5" cy="63.5" r="63" stroke="black"/>
</g>
<circle cx="103" cy="82" r="6" fill="#E05151"/>
<path d="M59.8684 51.088C57.9484 49.424 55.4844 48.592 52.4764 48.592C46.2684 48.592 43.1644 51.088 43.1644 56.08C43.1644 57.68 43.7404 59.216 44.8924 60.688C46.1084 62.096 47.5804 63.216 49.3084 64.048L56.7964 67.6C64.0924 71.12 67.7404 75.824 67.7404 81.712C67.7404 86.064 66.0124 89.52 62.5564 92.08C59.1004 94.64 55.0044 95.92 50.2684 95.92C47.7724 95.92 45.1484 95.664 42.3964 95.152C39.7084 94.704 37.7884 94.224 36.6364 93.712C36.4444 90.832 35.8684 86.832 34.9084 81.712C35.6124 81.264 36.1884 81.04 36.6364 81.04C37.1484 81.04 37.5004 81.104 37.6924 81.232C38.9724 85.072 40.0924 87.536 41.0524 88.624C41.7564 89.328 43.0044 90.096 44.7964 90.928C46.5884 91.76 48.7004 92.176 51.1324 92.176C53.6284 92.176 55.7724 91.504 57.5644 90.16C59.3564 88.816 60.2524 86.8 60.2524 84.112C60.2524 82.32 59.9004 80.976 59.1964 80.08C58.4924 79.184 57.8844 78.512 57.3724 78.064C56.9244 77.552 56.3804 77.104 55.7404 76.72C55.1644 76.336 54.6524 76.048 54.2044 75.856C53.8204 75.6 53.4044 75.376 52.9564 75.184C52.5724 74.928 52.3484 74.8 52.2844 74.8L45.0844 71.344C38.8764 68.4 35.7724 64.144 35.7724 58.576C35.7724 54.032 37.5004 50.672 40.9564 48.496C44.4124 46.256 48.3164 45.136 52.6684 45.136C54.7804 45.136 57.1484 45.424 59.7724 46C62.4604 46.512 64.4764 47.056 65.8204 47.632C65.3724 49.168 64.8604 52.752 64.2844 58.384C63.9644 58.64 63.5164 58.768 62.9404 58.768C62.4284 58.768 61.9164 58.704 61.4044 58.576C60.8924 55.376 60.3804 52.88 59.8684 51.088ZM80.1139 73.36C80.1139 83.984 81.9379 89.296 85.5859 89.296C88.2739 89.296 91.7619 88.4 96.0499 86.608C97.0099 86.928 97.4899 87.824 97.4899 89.296C92.8179 91.792 87.4419 94 81.3619 95.92C78.3539 95.92 76.0499 94.384 74.4499 91.312C72.9139 88.24 72.1459 84.112 72.1459 78.928V56.656C72.1459 52.88 71.9219 50.992 71.4739 50.992L64.3699 51.088C63.9219 50.96 63.6979 50.64 63.6979 50.128C64.0179 49.488 64.3059 48.336 64.5619 46.672H71.3779C71.8899 46.672 72.1459 45.552 72.1459 43.312L72.0499 35.152C74.4179 34.192 76.8499 32.208 79.3459 29.2C80.1139 29.2 80.6899 29.392 81.0739 29.776C80.4979 36.496 80.2099 42.128 80.2099 46.672C84.8819 46.672 89.4899 46.448 94.0339 46C94.4819 46.256 94.7059 46.64 94.7059 47.152C94.3219 47.792 94.0019 48.976 93.7459 50.704L80.1139 50.896V73.36Z" fill="#D30606" fill-opacity="0.7"/>
<defs>
<filter id="filter0_di_107_3" x="0" y="0" width="135" height="135" filterUnits="userSpaceOnUse" color-interpolation-filters="sRGB">
<feFlood flood-opacity="0" result="BackgroundImageFix"/>
<feColorMatrix in="SourceAlpha" type="matrix" values="0 0 0 0 0 0 0 0 0 0 0 0 0 0 0 0 0 0 127 0" result="hardAlpha"/>
<feOffset dy="4"/>
<feGaussianBlur stdDeviation="2"/>
<feComposite in2="hardAlpha" operator="out"/>
<feColorMatrix type="matrix" values="0 0 0 0 0 0 0 0 0 0 0 0 0 0 0 0 0 0 0.25 0"/>
<feBlend mode="normal" in2="BackgroundImageFix" result="effect1_dropShadow_107_3"/>
<feBlend mode="normal" in="SourceGraphic" in2="effect1_dropShadow_107_3" result="shape"/>
<feColorMatrix in="SourceAlpha" type="matrix" values="0 0 0 0 0 0 0 0 0 0 0 0 0 0 0 0 0 0 127 0" result="hardAlpha"/>
<feOffset dy="4"/>
<feGaussianBlur stdDeviation="2"/>
<feComposite in2="hardAlpha" operator="arithmetic" k2="-1" k3="1"/>
<feColorMatrix type="matrix" values="0 0 0 0 0 0 0 0 0 0 0 0 0 0 0 0 0 0 0.25 0"/>
<feBlend mode="normal" in2="shape" result="effect2_innerShadow_107_3"/>
</filter>
</defs>
</svg>
